<svg width="844" height="1000" viewBox="0 0 844 1000" fill="none" xmlns="http://www.w3.org/2000/svg">
<rect x="0.5" y="0.5" width="843" height="999" fill="white"/>
<rect x="0.5" y="0.5" width="843" height="999" stroke="#FFBBAB"/>
<path d="M318.052 480.288V529.763H308.732V480.288H293.5V472.369H333.206V480.288H318.052Z" fill="#55281D"/>
<path d="M341.546 498.518C342.46 496.061 343.661 494.244 345.149 493.068C346.663 491.892 348.53 491.304 350.748 491.304C351.949 491.304 353.124 491.448 354.273 491.735C355.447 492.023 356.596 492.441 357.719 492.99L354.664 500.203C353.933 499.681 353.137 499.302 352.276 499.066C351.44 498.805 350.5 498.674 349.456 498.674C346.637 498.674 344.614 499.811 343.387 502.085C342.16 504.333 341.546 508.122 341.546 513.454V529.763H333.049V492.519H341.546V498.518Z" fill="#55281D"/>
<path d="M397.503 529.763H389.006V524.941C387.491 527.084 385.716 528.678 383.68 529.724C381.67 530.769 379.36 531.292 376.749 531.292C371.502 531.292 367.364 529.501 364.336 525.921C361.334 522.314 359.833 517.387 359.833 511.141C359.833 505.208 361.373 500.425 364.454 496.793C367.534 493.134 371.554 491.304 376.514 491.304C379.542 491.304 382.127 491.944 384.267 493.225C386.434 494.48 388.014 496.296 389.006 498.674V492.598H397.503V529.763ZM389.24 511.063C389.24 507.221 388.34 504.228 386.539 502.085C384.763 499.942 382.27 498.87 379.059 498.87C375.849 498.87 373.316 499.981 371.463 502.203C369.636 504.398 368.722 507.456 368.722 511.376C368.722 515.323 369.609 518.368 371.385 520.511C373.16 522.654 375.666 523.725 378.903 523.725C381.957 523.725 384.437 522.562 386.343 520.236C388.275 517.91 389.24 514.852 389.24 511.063Z" fill="#55281D"/>
<path d="M422.29 531.997L402.828 492.598H412.109L420.214 511.298C420.475 511.873 420.788 512.735 421.154 513.885C421.519 515.035 421.898 516.407 422.29 518.002C422.551 516.878 422.851 515.767 423.19 514.669C423.556 513.546 423.986 512.422 424.482 511.298L432.549 492.598H441.79L422.29 531.997Z" fill="#55281D"/>
<path d="M482.906 512.435H453.224C453.433 515.911 454.464 518.629 456.318 520.589C458.171 522.523 460.638 523.49 463.718 523.49C466.459 523.49 468.744 522.915 470.571 521.765C472.398 520.615 473.991 518.76 475.348 516.198L482.514 520.197C480.426 523.934 477.841 526.718 474.761 528.547C471.68 530.377 468.065 531.292 463.914 531.292C457.962 531.292 453.224 529.475 449.7 525.842C446.176 522.21 444.414 517.361 444.414 511.298C444.414 505.47 446.228 500.687 449.857 496.949C453.511 493.186 458.197 491.304 463.914 491.304C469.892 491.304 474.552 493.016 477.893 496.44C481.235 499.864 482.906 504.659 482.906 510.827V512.435ZM474.095 506.711C473.756 504.045 472.738 502.02 471.041 500.635C469.344 499.223 467.021 498.518 464.071 498.518C461.277 498.518 459.032 499.197 457.336 500.556C455.639 501.915 454.451 503.967 453.772 506.711H474.095Z" fill="#55281D"/>
<path d="M492.186 529.763V468.997H500.683V529.763H492.186Z" fill="#55281D"/>
<path d="M513.253 529.763V468.997H521.75V529.763H513.253Z" fill="#55281D"/>
<path d="M533.184 476.524C533.184 475.087 533.706 473.845 534.75 472.8C535.821 471.755 537.087 471.232 538.549 471.232C540.063 471.232 541.316 471.742 542.308 472.761C543.326 473.754 543.835 475.009 543.835 476.524C543.835 478.04 543.326 479.321 542.308 480.366C541.29 481.386 540.037 481.895 538.549 481.895C537.087 481.895 535.821 481.373 534.75 480.327C533.706 479.256 533.184 477.988 533.184 476.524ZM534.32 529.763V492.598H542.817V529.763H534.32Z" fill="#55281D"/>
<path d="M589.923 529.763H581.426V524.941C579.912 527.084 578.137 528.678 576.101 529.724C574.091 530.769 571.78 531.292 569.17 531.292C563.923 531.292 559.785 529.501 556.757 525.921C553.755 522.314 552.254 517.387 552.254 511.141C552.254 505.208 553.794 500.425 556.874 496.793C559.955 493.134 563.975 491.304 568.935 491.304C571.963 491.304 574.548 491.944 576.688 493.225C578.855 494.48 580.434 496.296 581.426 498.674V492.598H589.923V529.763ZM581.661 511.063C581.661 507.221 580.761 504.228 578.959 502.085C577.184 499.942 574.691 498.87 571.48 498.87C568.269 498.87 565.737 499.981 563.884 502.203C562.056 504.398 561.143 507.456 561.143 511.376C561.143 515.323 562.03 518.368 563.805 520.511C565.58 522.654 568.087 523.725 571.324 523.725C574.378 523.725 576.858 522.562 578.764 520.236C580.695 517.91 581.661 514.852 581.661 511.063Z" fill="#55281D"/>
<path d="M601.671 529.763V492.598H609.659V498.674C611.356 496.113 613.353 494.244 615.65 493.068C617.947 491.892 620.741 491.304 624.03 491.304C626.797 491.304 629.146 491.748 631.078 492.637C633.036 493.499 634.563 494.793 635.66 496.518C636.312 497.537 636.782 498.727 637.069 500.086C637.356 501.445 637.5 503.823 637.5 507.221V529.763H628.924V510.671C628.924 505.783 628.324 502.542 627.123 500.948C625.948 499.328 623.847 498.518 620.819 498.518C618.835 498.518 617.06 498.883 615.493 499.615C613.953 500.347 612.739 501.379 611.852 502.712C611.225 503.601 610.781 504.751 610.52 506.162C610.285 507.547 610.168 509.769 610.168 512.827V529.763H601.671Z" fill="#55281D"/>
<path d="M233.102 518.874L244 529.617L254.898 518.874L244 508.131L233.102 518.874ZM244 466.737V466.753C240.881 466.753 237.762 467.927 235.386 470.27L235.375 470.259C233.004 472.601 231.813 475.682 231.813 478.762C231.813 481.847 232.999 484.922 235.364 487.254H235.38L244 495.746L252.614 487.254H252.631C255.012 484.906 256.203 481.831 256.203 478.762H256.187C256.187 475.687 254.996 472.612 252.62 470.27C250.227 467.916 247.108 466.737 244 466.737ZM261.18 525.067L247.141 538.906L244 542.003L240.859 538.906L226.82 525.067L212.782 538.906L206.5 532.714L237.724 501.939L229.109 493.447L229.12 493.436C224.996 489.375 222.937 484.061 222.937 478.762C222.937 473.458 224.996 468.148 229.109 464.093V464.082C233.223 460.027 238.614 457.997 244 457.997V458.013C249.397 458.013 254.794 460.038 258.896 464.082C263.009 468.137 265.063 473.452 265.063 478.767H265.047C265.047 484.077 262.993 489.386 258.885 493.441L258.896 493.452L250.282 501.939L281.5 532.714L275.218 538.906L261.18 525.067Z" fill="#55281D"/>
</svg>
